<svg width="260" height="260" viewBox="0 0 260 260" fill="none" xmlns="http://www.w3.org/2000/svg">
  <circle cx="130" cy="130" r="120" stroke="#222" stroke-width="8" fill="#fff" fill-opacity="0.7"/>
  <path d="M130 10 a120 120 0 1 0 0 240 a60 60 0 1 1 0-120 a60 60 0 1 0 0-120" fill="#222"/>
  <circle cx="130" cy="70" r="18" fill="#fff"/>
  <circle cx="130" cy="190" r="18" fill="#222"/>
  <g stroke="#222" stroke-width="6">
    <line x1="130" y1="20" x2="130" y2="50"/>
    <line x1="130" y1="210" x2="130" y2="240"/>
    <line x1="20" y1="130" x2="50" y2="130"/>
    <line x1="210" y1="130" x2="240" y2="130"/>
    <line x1="55" y1="55" x2="80" y2="80"/>
    <line x1="205" y1="205" x2="180" y2="180"/>
    <line x1="55" y1="205" x2="80" y2="180"/>
    <line x1="205" y1="55" x2="180" y2="80"/>
  </g>
</svg> 